<svg width="1739" height="1844" xmlns="http://www.w3.org/2000/svg" xmlns:xlink="http://www.w3.org/1999/xlink" overflow="hidden"><defs><clipPath id="clip0"><rect x="7454" y="1875" width="1739" height="1844"/></clipPath><clipPath id="clip1"><rect x="7455" y="1875" width="1736" height="1841"/></clipPath><clipPath id="clip2"><rect x="7455" y="1875" width="1736" height="1841"/></clipPath><clipPath id="clip3"><rect x="7455" y="1875" width="1736" height="1841"/></clipPath><clipPath id="clip4"><rect x="7455" y="1875" width="1736" height="1841"/></clipPath><clipPath id="clip5"><rect x="7455" y="1875" width="1736" height="1841"/></clipPath><clipPath id="clip6"><rect x="7455" y="1875" width="1736" height="1841"/></clipPath><clipPath id="clip7"><rect x="7455" y="1875" width="1736" height="1841"/></clipPath><clipPath id="clip8"><rect x="7455" y="1875" width="1736" height="1841"/></clipPath><clipPath id="clip9"><rect x="7455" y="1875" width="1736" height="1841"/></clipPath><clipPath id="clip10"><rect x="7455" y="1875" width="1736" height="1841"/></clipPath><clipPath id="clip11"><rect x="7455" y="1875" width="1736" height="1841"/></clipPath><clipPath id="clip12"><rect x="7455" y="1875" width="1736" height="1841"/></clipPath><clipPath id="clip13"><rect x="7455" y="1875" width="1736" height="1841"/></clipPath><clipPath id="clip14"><rect x="7455" y="1875" width="1736" height="1841"/></clipPath><clipPath id="clip15"><rect x="7455" y="1875" width="1736" height="1841"/></clipPath><clipPath id="clip16"><rect x="7455" y="1875" width="1736" height="1841"/></clipPath><clipPath id="clip17"><rect x="7455" y="1875" width="1736" height="1841"/></clipPath><clipPath id="clip18"><rect x="7455" y="1875" width="1736" height="1841"/></clipPath><clipPath id="clip19"><rect x="7455" y="1875" width="1736" height="1841"/></clipPath><clipPath id="clip20"><rect x="7455" y="1875" width="1736" height="1841"/></clipPath><clipPath id="clip21"><rect x="7455" y="1875" width="1736" height="1841"/></clipPath><clipPath id="clip22"><rect x="7455" y="1875" width="1736" height="1841"/></clipPath><clipPath id="clip23"><rect x="7455" y="1875" width="1736" height="1841"/></clipPath><clipPath id="clip24"><rect x="7455" y="1875" width="1736" height="1841"/></clipPath><clipPath id="clip25"><rect x="7455" y="1875" width="1736" height="1841"/></clipPath><clipPath id="clip26"><rect x="7455" y="1875" width="1736" height="1841"/></clipPath><clipPath id="clip27"><rect x="7455" y="1875" width="1736" height="1841"/></clipPath><clipPath id="clip28"><rect x="7455" y="1875" width="1736" height="1841"/></clipPath><clipPath id="clip29"><rect x="7455" y="1875" width="1736" height="1841"/></clipPath><clipPath id="clip30"><rect x="7455" y="1875" width="1736" height="1841"/></clipPath><clipPath id="clip31"><rect x="7455" y="1875" width="1736" height="1841"/></clipPath><clipPath id="clip32"><rect x="7455" y="1875" width="1736" height="1841"/></clipPath><clipPath id="clip33"><rect x="7455" y="1875" width="1736" height="1841"/></clipPath><clipPath id="clip34"><rect x="7455" y="1875" width="1736" height="1841"/></clipPath><clipPath id="clip35"><rect x="7455" y="1875" width="1736" height="1841"/></clipPath><clipPath id="clip36"><rect x="7455" y="1875" width="1736" height="1841"/></clipPath><clipPath id="clip37"><rect x="7455" y="1875" width="1736" height="1841"/></clipPath><clipPath id="clip38"><rect x="7455" y="1875" width="1736" height="1841"/></clipPath><clipPath id="clip39"><rect x="7455" y="1875" width="1736" height="1841"/></clipPath><clipPath id="clip40"><rect x="7455" y="1875" width="1736" height="1841"/></clipPath><clipPath id="clip41"><rect x="7455" y="1875" width="1736" height="1841"/></clipPath><clipPath id="clip42"><rect x="7455" y="1875" width="1736" height="1841"/></clipPath><clipPath id="clip43"><rect x="7455" y="1875" width="1736" height="1841"/></clipPath><clipPath id="clip44"><rect x="7455" y="1875" width="1736" height="1841"/></clipPath><clipPath id="clip45"><rect x="7455" y="1875" width="1736" height="1841"/></clipPath><clipPath id="clip46"><rect x="7455" y="1875" width="1736" height="1841"/></clipPath><clipPath id="clip47"><rect x="7455" y="1875" width="1736" height="1841"/></clipPath><clipPath id="clip48"><rect x="7455" y="1875" width="1736" height="1841"/></clipPath><clipPath id="clip49"><rect x="7455" y="1875" width="1736" height="1841"/></clipPath><clipPath id="clip50"><rect x="7455" y="1875" width="1736" height="1841"/></clipPath><clipPath id="clip51"><rect x="7455" y="1875" width="1736" height="1841"/></clipPath><clipPath id="clip52"><rect x="7455" y="1875" width="1736" height="1841"/></clipPath><clipPath id="clip53"><rect x="7455" y="1875" width="1736" height="1841"/></clipPath><clipPath id="clip54"><rect x="7455" y="1875" width="1736" height="1841"/></clipPath><clipPath id="clip55"><rect x="7455" y="1875" width="1736" height="1841"/></clipPath><clipPath id="clip56"><rect x="7455" y="1875" width="1736" height="1841"/></clipPath><clipPath id="clip57"><rect x="7455" y="1875" width="1736" height="1841"/></clipPath><clipPath id="clip58"><rect x="7455" y="1875" width="1736" height="1841"/></clipPath></defs><g clip-path="url(#clip0)" transform="translate(-7454 -1875)"><rect x="7455" y="1876" width="1736" height="1841" fill="#FFFFFF"/><g clip-path="url(#clip1)"><path d="M7569.5 3602.5 9114.5 3602.5M7569.5 3447.61 9114.5 3447.61M7569.5 3293.61 9114.5 3293.61M7569.5 3138.6 9114.5 3138.6M7569.5 2984.6 9114.5 2984.6M7569.5 2674.59 9114.5 2674.59M7569.5 2520.58 9114.5 2520.58M7569.5 2365.58 9114.5 2365.58M7569.5 2211.57 9114.5 2211.57M7569.5 2056.5 9114.5 2056.5" stroke="#D9D9D9" stroke-width="3.4375" stroke-linejoin="round" stroke-miterlimit="10" fill="none"/></g><g clip-path="url(#clip2)"><path d="M7569.5 2056.5 7569.5 3602.5M7723.75 2056.5 7723.75 3602.5M7878.76 2056.5 7878.76 3602.5M8032.76 2056.5 8032.76 3602.5M8187.77 2056.5 8187.77 3602.5M8496.78 2056.5 8496.78 3602.5M8650.78 2056.5 8650.78 3602.5M8805.79 2056.5 8805.79 3602.5M8959.79 2056.5 8959.79 3602.5M9114.5 2056.5 9114.5 3602.5" stroke="#D9D9D9" stroke-width="3.4375" stroke-linejoin="round" stroke-miterlimit="10" fill="none"/></g><g clip-path="url(#clip3)"><rect x="7569.5" y="2056.5" width="1545" height="1546" stroke="#000000" stroke-width="3.4375" stroke-linejoin="round" stroke-miterlimit="10" fill="none"/></g><g clip-path="url(#clip4)"><path d="M0 0 0.000360892 1546" stroke="#000000" stroke-width="3.4375" stroke-linejoin="round" stroke-miterlimit="10" fill="none" fill-rule="evenodd" transform="matrix(1 0 0 -1 8342.5 3602.5)"/></g><g clip-path="url(#clip5)"><path d="M8329.5 3602.5 8342.5 3602.5M8329.5 3447.61 8342.5 3447.61M8329.5 3293.61 8342.5 3293.61M8329.5 3138.6 8342.5 3138.6M8329.5 2984.6 8342.5 2984.6M8329.5 2829.59 8342.5 2829.59M8329.5 2674.59 8342.5 2674.59M8329.5 2520.58 8342.5 2520.58M8329.5 2365.58 8342.5 2365.58M8329.5 2211.57 8342.5 2211.57M8329.5 2056.5 8342.5 2056.5" stroke="#000000" stroke-width="3.4375" stroke-linejoin="round" stroke-miterlimit="10" fill="none"/></g><g clip-path="url(#clip6)"><path d="M7569.5 2829.5 9114.5 2829.5" stroke="#000000" stroke-width="3.4375" stroke-linejoin="round" stroke-miterlimit="10" fill="none" fill-rule="evenodd"/></g><g clip-path="url(#clip7)"><path d="M7569.5 2829.5 7569.5 2842.5M7723.75 2829.5 7723.75 2842.5M7878.76 2829.5 7878.76 2842.5M8032.76 2829.5 8032.76 2842.5M8187.77 2829.5 8187.77 2842.5M8341.77 2829.5 8341.77 2842.5M8496.78 2829.5 8496.78 2842.5M8650.78 2829.5 8650.78 2842.5M8805.79 2829.5 8805.79 2842.5M8959.79 2829.5 8959.79 2842.5M9114.5 2829.5 9114.5 2842.5" stroke="#000000" stroke-width="3.4375" stroke-linejoin="round" stroke-miterlimit="10" fill="none"/></g><g clip-path="url(#clip8)"><path d="M8365.25 2870.5 8378.25 2883.5 8365.25 2896.5 8352.25 2883.5Z"/><path d="M9039.25 3074.5 9052.25 3087.5 9039.25 3100.5 9026.25 3087.5Z"/><path d="M8365.25 2134.5 8378.25 2147.5 8365.25 2160.5 8352.25 2147.5Z"/><path d="M8365.25 2947.5 8378.25 2960.5 8365.25 2973.5 8352.25 2960.5Z"/><path d="M8140.25 2820.5 8153.25 2833.5 8140.25 2846.5 8127.25 2833.5Z"/><path d="M7915.25 2693.5 7928.25 2706.5 7915.25 2719.5 7902.25 2706.5Z"/><path d="M7915.25 3252.5 7928.25 3265.5 7915.25 3278.5 7902.25 3265.5Z"/><path d="M8365.25 2611.5 8378.25 2624.5 8365.25 2637.5 8352.25 2624.5Z"/><path d="M8365.25 2611.5 8378.25 2624.5 8365.25 2637.5 8352.25 2624.5Z"/><path d="M8589.25 2611.5 8602.25 2624.5 8589.25 2637.5 8576.25 2624.5Z"/></g><g clip-path="url(#clip9)"><path d="M8364.5 2883.5 8495.5 2771.5" stroke="#A6A6A6" stroke-width="3.4375" stroke-linejoin="round" stroke-miterlimit="10" fill="none"/></g><g clip-path="url(#clip10)"><path d="M9038.5 3086.5 9008.5 3153.5" stroke="#A6A6A6" stroke-width="3.4375" stroke-linejoin="round" stroke-miterlimit="10" fill="none"/></g><g clip-path="url(#clip11)"><path d="M8364.5 2146.5 8430.78 2129.5 8451.5 2129.5" stroke="#A6A6A6" stroke-width="3.4375" stroke-linejoin="round" stroke-miterlimit="10" fill="none"/></g><g clip-path="url(#clip12)"><path d="M8364.5 2959.5 8405.78 3084.5 8426.5 3084.5" stroke="#A6A6A6" stroke-width="3.4375" stroke-linejoin="round" stroke-miterlimit="10" fill="none"/></g><g clip-path="url(#clip13)"><path d="M8364.5 2624.5 8262.77 2441.5 8241.5 2441.5" stroke="#A6A6A6" stroke-width="3.4375" stroke-linejoin="round" stroke-miterlimit="10" fill="none"/></g><g clip-path="url(#clip14)"><path d="M8364.5 2624.5 8486.5 2421.5" stroke="#A6A6A6" stroke-width="3.4375" stroke-linejoin="round" stroke-miterlimit="10" fill="none"/></g><g clip-path="url(#clip15)"><path d="M8589.5 2624.5 8645.78 2474.5 8666.5 2474.5" stroke="#A6A6A6" stroke-width="3.4375" stroke-linejoin="round" stroke-miterlimit="10" fill="none"/></g><g clip-path="url(#clip16)"><text font-family="Calibri,Calibri_MSFontService,sans-serif" font-weight="400" font-size="41" transform="matrix(1 0 0 1 8355.22 2753)">Submit Question</text></g><g clip-path="url(#clip17)"><text font-family="Calibri,Calibri_MSFontService,sans-serif" font-weight="400" font-size="41" transform="matrix(1 0 0 1 8932.93 3199)">Reading/</text></g><g clip-path="url(#clip18)"><text font-family="Calibri,Calibri_MSFontService,sans-serif" font-weight="400" font-size="41" transform="matrix(1 0 0 1 8920.02 3250)">Answering</text></g><g clip-path="url(#clip19)"><text font-family="Calibri,Calibri_MSFontService,sans-serif" font-weight="400" font-size="41" transform="matrix(1 0 0 1 8465.57 2144)">GUI Menu</text></g><g clip-path="url(#clip20)"><text font-family="Calibri,Calibri_MSFontService,sans-serif" font-weight="400" font-size="41" transform="matrix(1 0 0 1 8440.47 3098)">Question Status</text></g><g clip-path="url(#clip21)"><text font-family="Calibri,Calibri_MSFontService,sans-serif" font-weight="400" font-size="41" transform="matrix(1 0 0 1 8053.9 2737)">Popularity </text></g><g clip-path="url(#clip22)"><text font-family="Calibri,Calibri_MSFontService,sans-serif" font-weight="400" font-size="41" transform="matrix(1 0 0 1 8063.47 2787)">Question</text></g><g clip-path="url(#clip23)"><text font-family="Calibri,Calibri_MSFontService,sans-serif" font-weight="400" font-size="41" transform="matrix(1 0 0 1 7795.94 2660)">Lecture Speed</text></g><g clip-path="url(#clip24)"><text font-family="Calibri,Calibri_MSFontService,sans-serif" font-weight="400" font-size="41" transform="matrix(1 0 0 1 7846.21 3168)">Number </text></g><g clip-path="url(#clip25)"><text font-family="Calibri,Calibri_MSFontService,sans-serif" font-weight="400" font-size="41" transform="matrix(1 0 0 1 7815.8 3219)">Participants</text></g><g clip-path="url(#clip26)"><text font-family="Calibri,Calibri_MSFontService,sans-serif" font-weight="400" font-size="41" transform="matrix(1 0 0 1 7975.49 2455)">Popularity Icon</text></g><g clip-path="url(#clip27)"><text font-family="Calibri,Calibri_MSFontService,sans-serif" font-weight="400" font-size="41" transform="matrix(1 0 0 1 8365.93 2404)">Color Contrast</text></g><g clip-path="url(#clip28)"><text font-family="Calibri,Calibri_MSFontService,sans-serif" font-weight="400" font-size="41" transform="matrix(1 0 0 1 8680.33 2488)">Style</text></g><g clip-path="url(#clip29)"><text fill="#595959" font-family="Calibri,Calibri_MSFontService,sans-serif" font-weight="400" font-size="41" transform="matrix(1 0 0 1 8218.15 3614)">-1.25</text></g><g clip-path="url(#clip30)"><text fill="#595959" font-family="Calibri,Calibri_MSFontService,sans-serif" font-weight="400" font-size="41" transform="matrix(1 0 0 1 8270.35 3459)">-1</text></g><g clip-path="url(#clip31)"><text fill="#595959" font-family="Calibri,Calibri_MSFontService,sans-serif" font-weight="400" font-size="41" transform="matrix(1 0 0 1 8218.15 3305)">-0.75</text></g><g clip-path="url(#clip32)"><text fill="#595959" font-family="Calibri,Calibri_MSFontService,sans-serif" font-weight="400" font-size="41" transform="matrix(1 0 0 1 8239.05 3150)">-0.5</text></g><g clip-path="url(#clip33)"><text fill="#595959" font-family="Calibri,Calibri_MSFontService,sans-serif" font-weight="400" font-size="41" transform="matrix(1 0 0 1 8218.15 2996)">-0.25</text></g><g clip-path="url(#clip34)"><text fill="#595959" font-family="Calibri,Calibri_MSFontService,sans-serif" font-weight="400" font-size="41" transform="matrix(1 0 0 1 8282.98 2841)">0</text></g><g clip-path="url(#clip35)"><text fill="#595959" font-family="Calibri,Calibri_MSFontService,sans-serif" font-weight="400" font-size="41" transform="matrix(1 0 0 1 8230.78 2687)">0.25</text></g><g clip-path="url(#clip36)"><text fill="#595959" font-family="Calibri,Calibri_MSFontService,sans-serif" font-weight="400" font-size="41" transform="matrix(1 0 0 1 8251.68 2532)">0.5</text></g><g clip-path="url(#clip37)"><text fill="#595959" font-family="Calibri,Calibri_MSFontService,sans-serif" font-weight="400" font-size="41" transform="matrix(1 0 0 1 8230.78 2377)">0.75</text></g><g clip-path="url(#clip38)"><text fill="#595959" font-family="Calibri,Calibri_MSFontService,sans-serif" font-weight="400" font-size="41" transform="matrix(1 0 0 1 8282.98 2223)">1</text></g><g clip-path="url(#clip39)"><text fill="#595959" font-family="Calibri,Calibri_MSFontService,sans-serif" font-weight="400" font-size="41" transform="matrix(1 0 0 1 8230.78 2068)">1.25</text></g><g clip-path="url(#clip40)"><text fill="#595959" font-family="Calibri,Calibri_MSFontService,sans-serif" font-weight="400" font-size="41" transform="matrix(1 0 0 1 7526.35 2895)">-</text></g><g clip-path="url(#clip41)"><text fill="#595959" font-family="Calibri,Calibri_MSFontService,sans-serif" font-weight="400" font-size="41" transform="matrix(1 0 0 1 7544.48 2895)">2.5</text></g><g clip-path="url(#clip42)"><text fill="#595959" font-family="Calibri,Calibri_MSFontService,sans-serif" font-weight="400" font-size="41" transform="matrix(1 0 0 1 7701.98 2895)">-</text></g><g clip-path="url(#clip43)"><text fill="#595959" font-family="Calibri,Calibri_MSFontService,sans-serif" font-weight="400" font-size="41" transform="matrix(1 0 0 1 7720.1 2895)">2</text></g><g clip-path="url(#clip44)"><text fill="#595959" font-family="Calibri,Calibri_MSFontService,sans-serif" font-weight="400" font-size="41" transform="matrix(1 0 0 1 7835.3 2895)">-</text></g><g clip-path="url(#clip45)"><text fill="#595959" font-family="Calibri,Calibri_MSFontService,sans-serif" font-weight="400" font-size="41" transform="matrix(1 0 0 1 7853.43 2895)">1.5</text></g><g clip-path="url(#clip46)"><text fill="#595959" font-family="Calibri,Calibri_MSFontService,sans-serif" font-weight="400" font-size="41" transform="matrix(1 0 0 1 8010.93 2895)">-</text></g><g clip-path="url(#clip47)"><text fill="#595959" font-family="Calibri,Calibri_MSFontService,sans-serif" font-weight="400" font-size="41" transform="matrix(1 0 0 1 8029.06 2895)">1</text></g><g clip-path="url(#clip48)"><text fill="#595959" font-family="Calibri,Calibri_MSFontService,sans-serif" font-weight="400" font-size="41" transform="matrix(1 0 0 1 8144.26 2895)">-</text></g><g clip-path="url(#clip49)"><text fill="#595959" font-family="Calibri,Calibri_MSFontService,sans-serif" font-weight="400" font-size="41" transform="matrix(1 0 0 1 8162.38 2895)">0.5</text></g><g clip-path="url(#clip50)"><text fill="#595959" font-family="Calibri,Calibri_MSFontService,sans-serif" font-weight="400" font-size="41" transform="matrix(1 0 0 1 8328.95 2895)">0</text></g><g clip-path="url(#clip51)"><text fill="#595959" font-family="Calibri,Calibri_MSFontService,sans-serif" font-weight="400" font-size="41" transform="matrix(1 0 0 1 8462.27 2895)">0.5</text></g><g clip-path="url(#clip52)"><text fill="#595959" font-family="Calibri,Calibri_MSFontService,sans-serif" font-weight="400" font-size="41" transform="matrix(1 0 0 1 8637.9 2895)">1</text></g><g clip-path="url(#clip53)"><text fill="#595959" font-family="Calibri,Calibri_MSFontService,sans-serif" font-weight="400" font-size="41" transform="matrix(1 0 0 1 8771.23 2895)">1.5</text></g><g clip-path="url(#clip54)"><text fill="#595959" font-family="Calibri,Calibri_MSFontService,sans-serif" font-weight="400" font-size="41" transform="matrix(1 0 0 1 8946.85 2895)">2</text></g><g clip-path="url(#clip55)"><text fill="#595959" font-family="Calibri,Calibri_MSFontService,sans-serif" font-weight="400" font-size="41" transform="matrix(1 0 0 1 9080.18 2895)">2.5</text></g><g clip-path="url(#clip56)"><text font-family="Calibri,Calibri_MSFontService,sans-serif" font-weight="400" font-size="41" transform="matrix(6.12323e-17 -1 1 6.12323e-17 7520.42 2917)">STANDARD IMPACT</text></g><g clip-path="url(#clip57)"><text font-family="Calibri,Calibri_MSFontService,sans-serif" font-weight="400" font-size="41" transform="matrix(1 0 0 1 8131.77 3671)">STANDARD FREQUENCY</text></g><g clip-path="url(#clip58)"><text fill="#595959" font-family="Calibri,Calibri_MSFontService,sans-serif" font-weight="700" font-size="73" transform="matrix(1 0 0 1 7759.09 1980)">PRIORITIZING SEVERITY MATRIX</text></g><rect x="7455.5" y="1876.5" width="1736" height="1841" stroke="#D9D9D9" stroke-width="3.4375" stroke-linejoin="round" stroke-miterlimit="10" fill="none"/></g></svg>